<svg width="14" height="19" viewBox="0 0 14 19" fill="none" xmlns="http://www.w3.org/2000/svg">
<path d="M1.73811 9.76122C1.3655 9.35357 0.732968 9.32517 0.325321 9.69779C-0.0823268 10.0704 -0.110726 10.7029 0.261889 11.1106L1.73811 9.76122ZM7 17L6.26189 17.6747L7 18.4822L7.73811 17.6747L7 17ZM13.7381 11.1106C14.1107 10.7029 14.0823 10.0704 13.6747 9.69779C13.267 9.32517 12.6345 9.35357 12.2619 9.76122L13.7381 11.1106ZM8 1C8 0.447715 7.55228 0 7 0C6.44772 0 6 0.447715 6 1L8 1ZM0.261889 11.1106L6.26189 17.6747L7.73811 16.3253L1.73811 9.76122L0.261889 11.1106ZM7.73811 17.6747L13.7381 11.1106L12.2619 9.76122L6.26189 16.3253L7.73811 17.6747ZM8 17L8 1L6 1L6 17H8Z" fill="white"/>
</svg>
