<svg width="10" height="8" viewBox="0 0 10 8" fill="none" xmlns="http://www.w3.org/2000/svg">
<path d="M1.75258 0.341495C1.38889 -0.0741413 0.757132 -0.116259 0.341495 0.247423C-0.0741413 0.611105 -0.116259 1.24287 0.247423 1.6585L1.75258 0.341495ZM5 5.57143L4.24742 6.22993L5 7.09002L5.75258 6.22993L5 5.57143ZM9.75258 1.6585C10.1163 1.24287 10.0741 0.611105 9.65851 0.247423C9.24287 -0.116259 8.61111 -0.0741413 8.24742 0.341495L9.75258 1.6585ZM0.247423 1.6585L4.24742 6.22993L5.75258 4.91292L1.75258 0.341495L0.247423 1.6585ZM5.75258 6.22993L9.75258 1.6585L8.24742 0.341495L4.24742 4.91292L5.75258 6.22993Z" fill="#287EFF"/>
</svg>
