<svg width="8" height="11" viewBox="0 0 8 11" fill="none" xmlns="http://www.w3.org/2000/svg">
<path d="M7.22979 2.03822C7.64543 1.67454 7.68755 1.04278 7.32387 0.62714C6.96018 0.211503 6.32842 0.169386 5.91278 0.533068L7.22979 2.03822ZM1.99986 5.28564L1.34136 4.53307L0.481268 5.28564L1.34136 6.03822L1.99986 5.28564ZM5.91278 10.0382C6.32842 10.4019 6.96018 10.3598 7.32387 9.94415C7.68755 9.52851 7.64543 8.89675 7.22979 8.53307L5.91278 10.0382ZM5.91278 0.533068L1.34136 4.53307L2.65837 6.03822L7.22979 2.03822L5.91278 0.533068ZM1.34136 6.03822L5.91278 10.0382L7.22979 8.53307L2.65837 4.53307L1.34136 6.03822Z" fill="white"/>
</svg>
