<svg width="265" height="36" viewBox="0 0 265 36" fill="none" xmlns="http://www.w3.org/2000/svg">
<path d="M54.872 10.2C57.112 10.2 58.848 10.688 60.08 11.664C61.312 12.64 61.928 14.008 61.928 15.768C61.928 17.176 61.576 18.416 60.872 19.488C60.184 20.56 59.192 21.392 57.896 21.984C56.616 22.576 55.128 22.872 53.432 22.872H50.528L49.712 27H44.048L47.408 10.2H54.872ZM53.72 18.504C54.504 18.504 55.112 18.312 55.544 17.928C55.976 17.528 56.192 16.976 56.192 16.272C56.192 15.136 55.488 14.568 54.08 14.568H52.184L51.392 18.504H53.72ZM76.8656 19.416C76.8656 20.136 76.7696 20.896 76.5776 21.696H67.3856C67.4976 22.24 67.7616 22.632 68.1776 22.872C68.5936 23.112 69.1696 23.232 69.9056 23.232C70.9936 23.232 71.9456 22.928 72.7616 22.32L75.0176 25.608C73.4176 26.696 71.5056 27.24 69.2816 27.24C67.8576 27.24 66.5936 26.992 65.4896 26.496C64.4016 26 63.5536 25.296 62.9456 24.384C62.3536 23.472 62.0576 22.4 62.0576 21.168C62.0576 19.728 62.3936 18.44 63.0656 17.304C63.7536 16.152 64.7136 15.256 65.9456 14.616C67.1776 13.96 68.5936 13.632 70.1936 13.632C71.5696 13.632 72.7616 13.88 73.7696 14.376C74.7776 14.856 75.5456 15.536 76.0736 16.416C76.6016 17.28 76.8656 18.28 76.8656 19.416ZM69.9536 17.328C69.3616 17.328 68.8656 17.488 68.4656 17.808C68.0816 18.112 67.7936 18.536 67.6016 19.08H71.8976C71.8976 18.536 71.7216 18.112 71.3696 17.808C71.0176 17.488 70.5456 17.328 69.9536 17.328ZM97.2046 13.872L94.6126 27H89.7406L90.8446 21.24L87.2206 25.968H84.9406L83.1886 20.856L81.9646 27H77.0926L79.7326 13.872H85.3966L87.2926 19.992L92.0446 13.872H97.2046ZM104.716 27.24C103.276 27.24 102.02 26.992 100.948 26.496C99.8757 25.984 99.0437 25.272 98.4517 24.36C97.8757 23.448 97.5877 22.384 97.5877 21.168C97.5877 19.744 97.9397 18.464 98.6437 17.328C99.3477 16.176 100.316 15.272 101.548 14.616C102.796 13.96 104.204 13.632 105.772 13.632C107.212 13.632 108.468 13.888 109.54 14.4C110.612 14.896 111.436 15.6 112.012 16.512C112.604 17.424 112.9 18.488 112.9 19.704C112.9 21.128 112.548 22.416 111.844 23.568C111.14 24.704 110.164 25.6 108.916 26.256C107.684 26.912 106.284 27.24 104.716 27.24ZM105.028 22.968C105.732 22.968 106.3 22.696 106.732 22.152C107.18 21.608 107.404 20.88 107.404 19.968C107.404 19.344 107.228 18.848 106.876 18.48C106.54 18.096 106.068 17.904 105.46 17.904C104.756 17.904 104.18 18.176 103.732 18.72C103.3 19.264 103.084 19.992 103.084 20.904C103.084 21.528 103.252 22.032 103.588 22.416C103.94 22.784 104.42 22.968 105.028 22.968ZM115.897 13.872H121.297L120.361 18.48H124.057L124.993 13.872H130.393L127.753 27H122.353L123.217 22.728H119.521L118.657 27H113.257L115.897 13.872ZM144.504 18.096H140.448L138.72 27H133.32L135.048 18.096H131.088L131.952 13.872H145.368L144.504 18.096ZM165.691 18.096H161.635L159.907 27H154.507L156.235 18.096H152.275L153.139 13.872H166.555L165.691 18.096ZM180.319 19.416C180.319 20.136 180.223 20.896 180.031 21.696H170.839C170.951 22.24 171.215 22.632 171.631 22.872C172.047 23.112 172.623 23.232 173.359 23.232C174.447 23.232 175.399 22.928 176.215 22.32L178.471 25.608C176.871 26.696 174.959 27.24 172.735 27.24C171.311 27.24 170.047 26.992 168.943 26.496C167.855 26 167.007 25.296 166.399 24.384C165.807 23.472 165.511 22.4 165.511 21.168C165.511 19.728 165.847 18.44 166.519 17.304C167.207 16.152 168.167 15.256 169.399 14.616C170.631 13.96 172.047 13.632 173.647 13.632C175.023 13.632 176.215 13.88 177.223 14.376C178.231 14.856 178.999 15.536 179.527 16.416C180.055 17.28 180.319 18.28 180.319 19.416ZM173.407 17.328C172.815 17.328 172.319 17.488 171.919 17.808C171.535 18.112 171.247 18.536 171.055 19.08H175.351C175.351 18.536 175.175 18.112 174.823 17.808C174.471 17.488 173.999 17.328 173.407 17.328ZM191.186 20.496L194.642 27H188.882L187.49 24.192L184.922 27H178.802L185.354 20.304L181.946 13.872H187.634L189.026 16.656L191.618 13.872H197.546L191.186 20.496ZM198.748 13.872H204.148L203.212 18.48H206.908L207.844 13.872H213.244L210.604 27H205.204L206.068 22.728H202.372L201.508 27H196.108L198.748 13.872ZM215.787 13.872H221.187L219.915 19.8L225.651 13.872H230.715L228.075 27H222.675L223.947 21.048L218.235 27H213.147L215.787 13.872ZM242.824 20.472L245.992 27H239.704L238.144 22.632H236.92L236.032 27H230.608L233.248 13.872H238.672L237.736 18.48H238.84L242.656 13.872H248.512L242.824 20.472ZM249.865 13.872H255.265L253.993 19.8L259.729 13.872H264.793L262.153 27H256.753L258.025 21.048L252.313 27H247.225L249.865 13.872Z" fill="white"/>
<g clip-path="url(#clip0)">
<path d="M35.1058 14.6514L31.8933 14.2655C31.565 13.0401 31.084 11.8824 30.4649 10.8082L32.4621 8.26959C32.7673 7.87937 32.7328 7.27603 32.38 6.92468L29.0696 3.61282C28.7211 3.26291 28.1163 3.22547 27.7247 3.53074L25.1817 5.53082C24.1118 4.91164 22.9541 4.4307 21.7316 4.10528L21.3471 0.892764C21.2881 0.401744 20.8345 0 20.3392 0H15.6565C15.1612 0 14.7076 0.401744 14.65 0.892764L14.2641 4.10528C13.0401 4.43214 11.881 4.91452 10.8111 5.53226L8.26959 3.53506C7.88081 3.22979 7.27603 3.26579 6.92612 3.6157L3.61426 6.929C3.26579 7.27747 3.22979 7.88225 3.5365 8.27391L5.53226 10.814C4.91308 11.8853 4.43214 13.0444 4.10528 14.2698L0.894204 14.6543C0.403184 14.7119 0 15.1655 0 15.6623V20.3449C0 20.8403 0.401744 21.291 0.894204 21.3515L4.10672 21.7374C4.43502 22.9584 4.91452 24.1162 5.5337 25.1875L3.53794 27.7304C3.23411 28.1206 3.26867 28.724 3.62002 29.0753L6.92612 32.3886C7.27603 32.7371 7.88081 32.776 8.26959 32.4707L10.8125 30.4692C11.8838 31.0884 13.0416 31.5707 14.2655 31.8962L14.6514 35.1072C14.7105 35.5997 15.1626 36 15.6579 36H20.3406C20.8374 36 21.2895 35.5997 21.3471 35.1072L21.7331 31.8962C22.9584 31.5679 24.1162 31.0869 25.186 30.4692L27.729 32.4664C28.1192 32.7717 28.7225 32.7357 29.0724 32.3857L32.3829 29.0724C32.7342 28.724 32.7702 28.1192 32.4635 27.7261L30.4649 25.186C31.0855 24.1147 31.565 22.957 31.8933 21.7345L35.1044 21.3486C35.5968 21.2896 35.9986 20.8403 35.9986 20.3421V15.6594C36 15.1612 35.5997 14.7105 35.1058 14.6514ZM18.0007 26.9989C13.03 26.9989 9.00108 22.97 9.00108 17.9993C9.00108 13.0286 13.03 8.99964 18.0007 8.99964C22.9714 8.99964 27.0004 13.0286 27.0004 17.9993C27.0004 22.97 22.9728 26.9989 18.0007 26.9989Z" fill="#287EFF"/>
</g>
<defs>
<clipPath id="clip0">
<rect width="35.9986" height="36" fill="white"/>
</clipPath>
</defs>
</svg>
