<svg width="265" height="36" viewBox="0 0 265 36" fill="none" xmlns="http://www.w3.org/2000/svg">
<path d="M54.87 9.2C57.11 9.2 58.846 9.688 60.078 10.664C61.31 11.64 61.926 13.008 61.926 14.768C61.926 16.176 61.574 17.416 60.87 18.488C60.182 19.56 59.19 20.392 57.894 20.984C56.614 21.576 55.126 21.872 53.43 21.872H50.526L49.71 26H44.046L47.406 9.2H54.87ZM53.718 17.504C54.502 17.504 55.11 17.312 55.542 16.928C55.974 16.528 56.19 15.976 56.19 15.272C56.19 14.136 55.486 13.568 54.078 13.568H52.182L51.39 17.504H53.718ZM76.8636 18.416C76.8636 19.136 76.7676 19.896 76.5756 20.696H67.3836C67.4956 21.24 67.7596 21.632 68.1756 21.872C68.5916 22.112 69.1676 22.232 69.9036 22.232C70.9916 22.232 71.9436 21.928 72.7596 21.32L75.0156 24.608C73.4156 25.696 71.5036 26.24 69.2796 26.24C67.8556 26.24 66.5916 25.992 65.4876 25.496C64.3996 25 63.5516 24.296 62.9436 23.384C62.3516 22.472 62.0556 21.4 62.0556 20.168C62.0556 18.728 62.3916 17.44 63.0636 16.304C63.7516 15.152 64.7116 14.256 65.9436 13.616C67.1756 12.96 68.5916 12.632 70.1916 12.632C71.5676 12.632 72.7596 12.88 73.7676 13.376C74.7756 13.856 75.5436 14.536 76.0716 15.416C76.5996 16.28 76.8636 17.28 76.8636 18.416ZM69.9516 16.328C69.3596 16.328 68.8636 16.488 68.4636 16.808C68.0796 17.112 67.7916 17.536 67.5996 18.08H71.8956C71.8956 17.536 71.7196 17.112 71.3676 16.808C71.0156 16.488 70.5436 16.328 69.9516 16.328ZM97.2027 12.872L94.6107 26H89.7387L90.8427 20.24L87.2187 24.968H84.9387L83.1867 19.856L81.9627 26H77.0907L79.7307 12.872H85.3947L87.2907 18.992L92.0427 12.872H97.2027ZM104.714 26.24C103.274 26.24 102.018 25.992 100.946 25.496C99.8737 24.984 99.0417 24.272 98.4497 23.36C97.8737 22.448 97.5857 21.384 97.5857 20.168C97.5857 18.744 97.9377 17.464 98.6417 16.328C99.3457 15.176 100.314 14.272 101.546 13.616C102.794 12.96 104.202 12.632 105.77 12.632C107.21 12.632 108.466 12.888 109.538 13.4C110.61 13.896 111.434 14.6 112.01 15.512C112.602 16.424 112.898 17.488 112.898 18.704C112.898 20.128 112.546 21.416 111.842 22.568C111.138 23.704 110.162 24.6 108.914 25.256C107.682 25.912 106.282 26.24 104.714 26.24ZM105.026 21.968C105.73 21.968 106.298 21.696 106.73 21.152C107.178 20.608 107.402 19.88 107.402 18.968C107.402 18.344 107.226 17.848 106.874 17.48C106.538 17.096 106.066 16.904 105.458 16.904C104.754 16.904 104.178 17.176 103.73 17.72C103.298 18.264 103.082 18.992 103.082 19.904C103.082 20.528 103.25 21.032 103.586 21.416C103.938 21.784 104.418 21.968 105.026 21.968ZM115.895 12.872H121.295L120.359 17.48H124.055L124.991 12.872H130.391L127.751 26H122.351L123.215 21.728H119.519L118.655 26H113.255L115.895 12.872ZM144.502 17.096H140.446L138.718 26H133.318L135.046 17.096H131.086L131.95 12.872H145.366L144.502 17.096ZM165.689 17.096H161.633L159.905 26H154.505L156.233 17.096H152.273L153.137 12.872H166.553L165.689 17.096ZM180.317 18.416C180.317 19.136 180.221 19.896 180.029 20.696H170.837C170.949 21.24 171.213 21.632 171.629 21.872C172.045 22.112 172.621 22.232 173.357 22.232C174.445 22.232 175.397 21.928 176.213 21.32L178.469 24.608C176.869 25.696 174.957 26.24 172.733 26.24C171.309 26.24 170.045 25.992 168.941 25.496C167.853 25 167.005 24.296 166.397 23.384C165.805 22.472 165.509 21.4 165.509 20.168C165.509 18.728 165.845 17.44 166.517 16.304C167.205 15.152 168.165 14.256 169.397 13.616C170.629 12.96 172.045 12.632 173.645 12.632C175.021 12.632 176.213 12.88 177.221 13.376C178.229 13.856 178.997 14.536 179.525 15.416C180.053 16.28 180.317 17.28 180.317 18.416ZM173.405 16.328C172.813 16.328 172.317 16.488 171.917 16.808C171.533 17.112 171.245 17.536 171.053 18.08H175.349C175.349 17.536 175.173 17.112 174.821 16.808C174.469 16.488 173.997 16.328 173.405 16.328ZM191.184 19.496L194.64 26H188.88L187.488 23.192L184.92 26H178.8L185.352 19.304L181.944 12.872H187.632L189.024 15.656L191.616 12.872H197.544L191.184 19.496ZM198.746 12.872H204.146L203.21 17.48H206.906L207.842 12.872H213.242L210.602 26H205.202L206.066 21.728H202.37L201.506 26H196.106L198.746 12.872ZM215.785 12.872H221.185L219.913 18.8L225.649 12.872H230.713L228.073 26H222.673L223.945 20.048L218.233 26H213.145L215.785 12.872ZM242.822 19.472L245.99 26H239.702L238.142 21.632H236.918L236.03 26H230.606L233.246 12.872H238.67L237.734 17.48H238.838L242.654 12.872H248.51L242.822 19.472ZM249.863 12.872H255.263L253.991 18.8L259.727 12.872H264.791L262.151 26H256.751L258.023 20.048L252.311 26H247.223L249.863 12.872Z" fill="#1D2240"/>
<g clip-path="url(#clip0)">
<path d="M35.1058 14.6514L31.8933 14.2655C31.565 13.0401 31.084 11.8824 30.4649 10.8082L32.4621 8.26959C32.7673 7.87937 32.7328 7.27603 32.38 6.92468L29.0696 3.61282C28.7211 3.26291 28.1163 3.22547 27.7247 3.53074L25.1817 5.53082C24.1118 4.91164 22.9541 4.4307 21.7316 4.10528L21.3471 0.892764C21.2881 0.401744 20.8345 0 20.3392 0H15.6565C15.1612 0 14.7076 0.401744 14.65 0.892764L14.2641 4.10528C13.0401 4.43214 11.881 4.91452 10.8111 5.53226L8.26959 3.53506C7.88081 3.22979 7.27603 3.26579 6.92612 3.6157L3.61426 6.929C3.26579 7.27747 3.22979 7.88225 3.5365 8.27391L5.53226 10.814C4.91308 11.8853 4.43214 13.0444 4.10528 14.2698L0.894204 14.6543C0.403184 14.7119 0 15.1655 0 15.6623V20.3449C0 20.8403 0.401744 21.291 0.894204 21.3515L4.10672 21.7374C4.43502 22.9584 4.91452 24.1162 5.5337 25.1875L3.53794 27.7304C3.23411 28.1206 3.26867 28.724 3.62002 29.0753L6.92612 32.3886C7.27603 32.7371 7.88081 32.776 8.26959 32.4707L10.8125 30.4692C11.8838 31.0884 13.0416 31.5707 14.2655 31.8962L14.6514 35.1072C14.7105 35.5997 15.1626 36 15.6579 36H20.3406C20.8374 36 21.2895 35.5997 21.3471 35.1072L21.7331 31.8962C22.9584 31.5679 24.1162 31.0869 25.186 30.4692L27.729 32.4664C28.1192 32.7717 28.7225 32.7357 29.0724 32.3857L32.3829 29.0724C32.7342 28.724 32.7702 28.1192 32.4635 27.7261L30.4649 25.186C31.0855 24.1147 31.565 22.957 31.8933 21.7345L35.1044 21.3486C35.5968 21.2896 35.9986 20.8403 35.9986 20.3421V15.6594C36 15.1612 35.5997 14.7105 35.1058 14.6514ZM18.0007 26.9989C13.03 26.9989 9.00108 22.97 9.00108 17.9993C9.00108 13.0286 13.03 8.99964 18.0007 8.99964C22.9714 8.99964 27.0004 13.0286 27.0004 17.9993C27.0004 22.97 22.9728 26.9989 18.0007 26.9989Z" fill="#287EFF"/>
</g>
<defs>
<clipPath id="clip0">
<rect width="35.9986" height="36" fill="white"/>
</clipPath>
</defs>
</svg>
