<svg width="18" height="12" viewBox="0 0 18 12" fill="none" xmlns="http://www.w3.org/2000/svg">
<path d="M1.75258 0.341495C1.38889 -0.0741413 0.757132 -0.116259 0.341495 0.247423C-0.0741413 0.611105 -0.116259 1.24287 0.247423 1.6585L1.75258 0.341495ZM9 10.1429L8.24742 10.8014L9 11.6614L9.75258 10.8014L9 10.1429ZM17.7526 1.6585C18.1163 1.24287 18.0741 0.611105 17.6585 0.247423C17.2429 -0.116259 16.6111 -0.0741413 16.2474 0.341495L17.7526 1.6585ZM0.247423 1.6585L8.24742 10.8014L9.75258 9.48435L1.75258 0.341495L0.247423 1.6585ZM9.75258 10.8014L17.7526 1.6585L16.2474 0.341495L8.24742 9.48435L9.75258 10.8014Z" fill="#287EFF"/>
</svg>
