<svg width="27" height="16" viewBox="0 0 27 16" fill="none" xmlns="http://www.w3.org/2000/svg">
<path d="M26.0778 14.1836C26.0778 14.0779 25.973 14.0779 25.973 13.9723C25.5541 13.1267 24.6115 12.0699 23.3547 10.9073C22.7263 10.3788 22.4121 9.95607 22.2027 9.74469C21.8885 9.32194 21.8885 9.00488 21.9932 8.58212C22.098 8.26506 22.5169 7.7366 23.25 6.7854C23.6689 6.25695 23.8784 5.9399 24.1926 5.62283C25.7636 3.50905 26.4967 2.13508 26.2872 1.50095L26.1825 1.39527C26.0778 1.28958 25.973 1.18389 25.7636 1.18389C25.5541 1.07821 25.2399 1.07821 24.9257 1.18389H20.9459C20.8412 1.18389 20.8412 1.18389 20.6317 1.18389C20.527 1.18389 20.4222 1.18389 20.4222 1.18389H20.3175H20.2128L20.108 1.28957C20.0033 1.39526 20.0033 1.39526 20.0033 1.50095C19.5844 2.66353 19.0607 3.61473 18.5371 4.67162C18.2229 5.20006 17.9087 5.72852 17.5945 6.15127C17.2803 6.57403 17.0708 6.89109 16.8613 7.10247C16.6519 7.31385 16.4424 7.41953 16.3377 7.63091C16.2329 7.7366 16.0235 7.8423 16.0235 7.73661C15.9188 7.73661 15.814 7.7366 15.814 7.63091C15.7093 7.52522 15.6046 7.41953 15.4998 7.31384C15.3951 7.20815 15.3951 6.99678 15.2904 6.7854C15.2904 6.57402 15.2904 6.36264 15.2904 6.25695C15.2904 6.15126 15.2904 5.83421 15.2904 5.62283C15.2904 5.30576 15.2904 5.09438 15.2904 4.98869C15.2904 4.67162 15.2904 4.24887 15.2904 3.82612C15.2904 3.40336 15.2904 3.08629 15.2904 2.87491C15.2904 2.66353 15.2904 2.34647 15.2904 2.13509C15.2904 1.81802 15.2904 1.60664 15.2904 1.50095C15.2904 1.39526 15.1857 1.18389 15.1857 1.0782C15.0809 0.97251 14.9762 0.866817 14.8714 0.761128C14.7667 0.655439 14.5573 0.655443 14.4525 0.549754C13.9289 0.444065 13.3005 0.338379 12.5674 0.338379C10.8916 0.338379 9.73959 0.444071 9.32066 0.655449C9.1112 0.761138 8.90173 0.866821 8.797 1.0782C8.58754 1.28958 8.58753 1.39527 8.69226 1.39527C9.21592 1.50096 9.63486 1.71233 9.84432 2.02939L9.94906 2.24078C10.0538 2.34647 10.0538 2.55784 10.1585 2.87491C10.2632 3.19198 10.2632 3.50904 10.2632 3.9318C10.2632 4.56593 10.2632 5.20007 10.2632 5.62283C10.2632 6.15127 10.1585 6.46833 10.1585 6.7854C10.1585 7.10246 10.0538 7.31385 9.94906 7.41954C9.84433 7.63092 9.84431 7.73661 9.73958 7.73661C9.73958 7.73661 9.73958 7.84229 9.63484 7.84229C9.53011 7.84229 9.42539 7.94798 9.21592 7.94798C9.11119 7.94798 8.90173 7.8423 8.797 7.73661C8.58754 7.63092 8.37807 7.41954 8.27334 7.20816C8.06388 6.99679 7.85441 6.67971 7.64494 6.25695C7.43548 5.8342 7.12127 5.41145 6.91181 4.77731L6.70236 4.35456C6.59763 4.14319 6.38817 3.72042 6.1787 3.19198C5.96924 2.66353 5.75977 2.24078 5.55031 1.71234C5.44557 1.50096 5.34085 1.39526 5.23612 1.28957H5.13138C5.13138 1.28957 5.02664 1.18389 4.92191 1.18389C4.81718 1.18389 4.71246 1.0782 4.60773 1.0782H0.83737C0.418443 1.0782 0.208982 1.18388 0.10425 1.28957L-0.000488281 1.39527C-0.000488281 1.39527 -0.000488281 1.50095 -0.000488281 1.60664C-0.000488281 1.71233 -0.00048189 1.81802 0.10425 2.02939C0.62791 3.29766 1.2563 4.56594 1.88469 5.8342C2.51308 6.99678 3.14148 8.05368 3.56041 8.7935C4.08407 9.53332 4.50299 10.2731 5.02665 10.9073C5.55031 11.5414 5.8645 11.9642 5.96923 12.1755C6.17869 12.3869 6.28342 12.4926 6.38815 12.5983L6.70236 12.9154C6.91183 13.1267 7.22602 13.4438 7.64494 13.7609C8.06387 14.0779 8.58752 14.395 9.11118 14.7121C9.63484 15.0291 10.2632 15.2405 10.8916 15.4519C11.6248 15.6633 12.2531 15.769 12.8815 15.6633H14.4525C14.7667 15.6633 14.9762 15.5576 15.1857 15.3462L15.2904 15.2405C15.2904 15.1348 15.3951 15.1348 15.3951 15.0291C15.3951 14.9235 15.3951 14.8178 15.3951 14.6064C15.3951 14.1836 15.3951 13.8666 15.4998 13.5495C15.6046 13.2324 15.6046 13.0211 15.7093 12.8097C15.814 12.5983 15.9188 12.4926 16.0235 12.3869C16.1282 12.2812 16.233 12.1755 16.233 12.1755H16.3377C16.5471 12.0699 16.8614 12.1755 17.0708 12.3869C17.385 12.5983 17.6992 12.9154 17.9087 13.2324C18.1181 13.5495 18.4323 13.8666 18.8513 14.2893C19.2702 14.7121 19.5844 15.0291 19.7939 15.1348L20.108 15.3462C20.3175 15.4519 20.527 15.5576 20.8412 15.6633C21.1554 15.769 21.3648 15.769 21.5743 15.769L25.1352 15.6633C25.4494 15.6633 25.7636 15.5576 25.973 15.4519C26.1825 15.3462 26.2872 15.2405 26.2872 15.0291C26.2872 14.9235 26.2872 14.7121 26.2872 14.6064C26.0777 14.395 26.0778 14.2893 26.0778 14.1836Z" fill="white"/>
</svg>
