<svg width="25" height="27" viewBox="0 0 25 27" fill="none" xmlns="http://www.w3.org/2000/svg">
<path fill-rule="evenodd" clip-rule="evenodd" d="M7.36638 0.799805H17.1693C21.2299 0.799805 24.5216 4.21342 24.5216 8.42433V18.5904C24.5216 22.8013 21.2299 26.2149 17.1693 26.2149H7.36638C3.30586 26.2149 0.0141602 22.8013 0.0141602 18.5904V8.42433C0.0141602 4.21342 3.30586 0.799805 7.36638 0.799805ZM7.36638 3.34131C4.65937 3.34131 2.4649 5.61706 2.4649 8.42433V18.5904C2.4649 21.3976 4.65937 23.6734 7.36638 23.6734H17.1693C19.8763 23.6734 22.0708 21.3976 22.0708 18.5904V8.42433C22.0708 5.61706 19.8763 3.34131 17.1693 3.34131H7.36638ZM12.2679 19.8611C8.88409 19.8611 6.14101 17.0164 6.14101 13.5073C6.14101 9.99825 8.88409 7.15357 12.2679 7.15357C15.6516 7.15357 18.3947 9.99825 18.3947 13.5073C18.3947 17.0164 15.6516 19.8611 12.2679 19.8611ZM12.2679 17.3196C14.2981 17.3196 15.944 15.6128 15.944 13.5073C15.944 11.4019 14.2981 9.69508 12.2679 9.69508C10.2376 9.69508 8.59175 11.4019 8.59175 13.5073C8.59175 15.6128 10.2376 17.3196 12.2679 17.3196ZM18.3947 8.42433C17.718 8.42433 17.1693 7.85539 17.1693 7.15357C17.1693 6.45176 17.718 5.88282 18.3947 5.88282C19.0715 5.88282 19.6201 6.45176 19.6201 7.15357C19.6201 7.85539 19.0715 8.42433 18.3947 8.42433Z" fill="white"/>
</svg>
