<svg width="40" height="48" viewBox="0 0 40 48" fill="none" xmlns="http://www.w3.org/2000/svg">
<rect x="4.5" y="0.5" width="35" height="47" rx="3.5" fill="white" stroke="#DDDDDD"/>
<path d="M0 32C0 29.7909 1.79086 28 4 28H40V44H4C1.79086 44 0 42.2091 0 40V32Z" fill="#287EFF"/>
<path d="M11.2517 40.096C10.9237 40.096 10.6477 39.984 10.4237 39.76C10.1997 39.536 10.0877 39.256 10.0877 38.92C10.0877 38.576 10.1997 38.3 10.4237 38.092C10.6477 37.876 10.9237 37.768 11.2517 37.768C11.5797 37.768 11.8557 37.876 12.0797 38.092C12.3037 38.3 12.4157 38.576 12.4157 38.92C12.4157 39.256 12.3037 39.536 12.0797 39.76C11.8557 39.984 11.5797 40.096 11.2517 40.096ZM20.1783 31.096V40H18.3903V39.256C17.9263 39.816 17.2543 40.096 16.3743 40.096C15.7663 40.096 15.2143 39.96 14.7183 39.688C14.2303 39.416 13.8463 39.028 13.5663 38.524C13.2863 38.02 13.1463 37.436 13.1463 36.772C13.1463 36.108 13.2863 35.524 13.5663 35.02C13.8463 34.516 14.2303 34.128 14.7183 33.856C15.2143 33.584 15.7663 33.448 16.3743 33.448C17.1983 33.448 17.8423 33.708 18.3063 34.228V31.096H20.1783ZM16.6983 38.56C17.1703 38.56 17.5623 38.4 17.8743 38.08C18.1863 37.752 18.3423 37.316 18.3423 36.772C18.3423 36.228 18.1863 35.796 17.8743 35.476C17.5623 35.148 17.1703 34.984 16.6983 34.984C16.2183 34.984 15.8223 35.148 15.5103 35.476C15.1983 35.796 15.0423 36.228 15.0423 36.772C15.0423 37.316 15.1983 37.752 15.5103 38.08C15.8223 38.4 16.2183 38.56 16.6983 38.56ZM24.9829 40.096C24.3029 40.096 23.6909 39.956 23.1469 39.676C22.6109 39.388 22.1909 38.992 21.8869 38.488C21.5829 37.984 21.4309 37.412 21.4309 36.772C21.4309 36.132 21.5829 35.56 21.8869 35.056C22.1909 34.552 22.6109 34.16 23.1469 33.88C23.6909 33.592 24.3029 33.448 24.9829 33.448C25.6629 33.448 26.2709 33.592 26.8069 33.88C27.3429 34.16 27.7629 34.552 28.0669 35.056C28.3709 35.56 28.5229 36.132 28.5229 36.772C28.5229 37.412 28.3709 37.984 28.0669 38.488C27.7629 38.992 27.3429 39.388 26.8069 39.676C26.2709 39.956 25.6629 40.096 24.9829 40.096ZM24.9829 38.56C25.4629 38.56 25.8549 38.4 26.1589 38.08C26.4709 37.752 26.6269 37.316 26.6269 36.772C26.6269 36.228 26.4709 35.796 26.1589 35.476C25.8549 35.148 25.4629 34.984 24.9829 34.984C24.5029 34.984 24.1069 35.148 23.7949 35.476C23.4829 35.796 23.3269 36.228 23.3269 36.772C23.3269 37.316 23.4829 37.752 23.7949 38.08C24.1069 38.4 24.5029 38.56 24.9829 38.56ZM32.8942 40.096C32.2062 40.096 31.5862 39.956 31.0342 39.676C30.4902 39.388 30.0622 38.992 29.7502 38.488C29.4462 37.984 29.2942 37.412 29.2942 36.772C29.2942 36.132 29.4462 35.56 29.7502 35.056C30.0622 34.552 30.4902 34.16 31.0342 33.88C31.5862 33.592 32.2062 33.448 32.8942 33.448C33.5742 33.448 34.1662 33.592 34.6702 33.88C35.1822 34.16 35.5542 34.564 35.7862 35.092L34.3342 35.872C33.9982 35.28 33.5142 34.984 32.8822 34.984C32.3942 34.984 31.9902 35.144 31.6702 35.464C31.3502 35.784 31.1902 36.22 31.1902 36.772C31.1902 37.324 31.3502 37.76 31.6702 38.08C31.9902 38.4 32.3942 38.56 32.8822 38.56C33.5222 38.56 34.0062 38.264 34.3342 37.672L35.7862 38.464C35.5542 38.976 35.1822 39.376 34.6702 39.664C34.1662 39.952 33.5742 40.096 32.8942 40.096Z" fill="white"/>
<rect x="8" y="6" width="28" height="2" fill="#C4C4C4"/>
<rect x="8" y="10" width="28" height="2" fill="#C4C4C4"/>
<rect x="8" y="14" width="28" height="2" fill="#C4C4C4"/>
<rect x="8" y="18" width="28" height="2" fill="#C4C4C4"/>
<rect x="8" y="22" width="28" height="2" fill="#C4C4C4"/>
</svg>
