<svg width="40" height="48" viewBox="0 0 40 48" fill="none" xmlns="http://www.w3.org/2000/svg">
<rect x="4.5" y="0.5" width="35" height="47" rx="3.5" fill="white" stroke="#DDDDDD"/>
<path d="M0 32C0 29.7909 1.79086 28 4 28H40V44H4C1.79086 44 0 42.2091 0 40V32Z" fill="#FF0000"/>
<path d="M13.197 40.096C12.869 40.096 12.593 39.984 12.369 39.76C12.145 39.536 12.033 39.256 12.033 38.92C12.033 38.576 12.145 38.3 12.369 38.092C12.593 37.876 12.869 37.768 13.197 37.768C13.525 37.768 13.801 37.876 14.025 38.092C14.249 38.3 14.361 38.576 14.361 38.92C14.361 39.256 14.249 39.536 14.025 39.76C13.801 39.984 13.525 40.096 13.197 40.096ZM19.4456 33.448C20.0456 33.448 20.5896 33.588 21.0776 33.868C21.5736 34.14 21.9616 34.528 22.2416 35.032C22.5216 35.528 22.6616 36.108 22.6616 36.772C22.6616 37.436 22.5216 38.02 22.2416 38.524C21.9616 39.02 21.5736 39.408 21.0776 39.688C20.5896 39.96 20.0456 40.096 19.4456 40.096C18.6216 40.096 17.9736 39.836 17.5016 39.316V42.328H15.6296V33.544H17.4176V34.288C17.8816 33.728 18.5576 33.448 19.4456 33.448ZM19.1216 38.56C19.6016 38.56 19.9936 38.4 20.2976 38.08C20.6096 37.752 20.7656 37.316 20.7656 36.772C20.7656 36.228 20.6096 35.796 20.2976 35.476C19.9936 35.148 19.6016 34.984 19.1216 34.984C18.6416 34.984 18.2456 35.148 17.9336 35.476C17.6296 35.796 17.4776 36.228 17.4776 36.772C17.4776 37.316 17.6296 37.752 17.9336 38.08C18.2456 38.4 18.6416 38.56 19.1216 38.56ZM30.4908 31.096V40H28.7028V39.256C28.2388 39.816 27.5668 40.096 26.6868 40.096C26.0788 40.096 25.5268 39.96 25.0308 39.688C24.5428 39.416 24.1588 39.028 23.8788 38.524C23.5988 38.02 23.4588 37.436 23.4588 36.772C23.4588 36.108 23.5988 35.524 23.8788 35.02C24.1588 34.516 24.5428 34.128 25.0308 33.856C25.5268 33.584 26.0788 33.448 26.6868 33.448C27.5108 33.448 28.1548 33.708 28.6188 34.228V31.096H30.4908ZM27.0108 38.56C27.4828 38.56 27.8748 38.4 28.1868 38.08C28.4988 37.752 28.6548 37.316 28.6548 36.772C28.6548 36.228 28.4988 35.796 28.1868 35.476C27.8748 35.148 27.4828 34.984 27.0108 34.984C26.5308 34.984 26.1348 35.148 25.8228 35.476C25.5108 35.796 25.3548 36.228 25.3548 36.772C25.3548 37.316 25.5108 37.752 25.8228 38.08C26.1348 38.4 26.5308 38.56 27.0108 38.56ZM34.2754 33.688H35.9314V35.128H34.3234V40H32.4514V35.128H31.4554V33.688H32.4514V33.4C32.4514 32.664 32.6674 32.08 33.0994 31.648C33.5394 31.216 34.1554 31 34.9474 31C35.2274 31 35.4914 31.032 35.7394 31.096C35.9954 31.152 36.2074 31.236 36.3754 31.348L35.8834 32.704C35.6674 32.552 35.4154 32.476 35.1274 32.476C34.5594 32.476 34.2754 32.788 34.2754 33.412V33.688Z" fill="white"/>
<rect x="8" y="6" width="28" height="2" fill="#C4C4C4"/>
<rect x="8" y="10" width="28" height="2" fill="#C4C4C4"/>
<rect x="8" y="14" width="28" height="2" fill="#C4C4C4"/>
<rect x="8" y="18" width="28" height="2" fill="#C4C4C4"/>
<rect x="8" y="22" width="28" height="2" fill="#C4C4C4"/>
</svg>
