<svg width="72" height="72" viewBox="0 0 72 72" fill="none" xmlns="http://www.w3.org/2000/svg">
<g clip-path="url(#clip0)">
<ellipse cx="36.0014" cy="36" rx="22.0009" ry="22" fill="white"/>
<path d="M70.2144 29.3028L63.7891 28.531C63.1325 26.0802 62.1706 23.7648 60.9322 21.6164L64.9267 16.5392C65.5373 15.7587 65.4682 14.5521 64.7626 13.8494L58.1414 7.22563C57.4445 6.52582 56.2349 6.45094 55.4515 7.06148L50.3654 11.0616C48.2256 9.82329 45.9101 8.86141 43.465 8.21055L42.696 1.78553C42.5779 0.803488 41.6707 0 40.68 0H31.3142C30.3235 0 29.4163 0.803488 29.3011 1.78553L28.5293 8.21055C26.0813 8.86429 23.7629 9.82905 21.623 11.0645L16.5398 7.07012C15.7622 6.45958 14.5526 6.53158 13.8528 7.23139L7.2288 13.858C6.53184 14.5549 6.45984 15.7645 7.07328 16.5478L11.065 21.6279C9.82656 23.7706 8.86464 26.0889 8.21088 28.5397L1.78848 29.3086C0.8064 29.4238 0 30.3309 0 31.3245V40.6899C0 41.6806 0.80352 42.582 1.78848 42.7029L8.21376 43.4747C8.8704 45.9169 9.82944 48.2323 11.0678 50.375L7.07616 55.4608C6.46848 56.2413 6.5376 57.4479 7.24032 58.1506L13.8528 64.7773C14.5526 65.4742 15.7622 65.5519 16.5398 64.9414L21.6259 60.9384C23.7686 62.1767 26.0842 63.1415 28.5322 63.7923L29.304 70.2145C29.4221 71.1994 30.3264 72 31.3171 72H40.6829C41.6765 72 42.5808 71.1994 42.696 70.2145L43.4678 63.7923C45.9187 63.1357 48.2342 62.1738 50.3741 60.9384L55.4602 64.9328C56.2406 65.5433 57.4474 65.4713 58.1472 64.7715L64.7683 58.1449C65.471 57.4479 65.543 56.2384 64.9296 55.4522L60.9322 50.3721C62.1734 48.2294 63.1325 45.914 63.7891 43.469L70.2115 42.6972C71.1965 42.5791 72 41.6806 72 40.6841V31.3187C72.0029 30.3223 71.2022 29.4209 70.2144 29.3028ZM36.0029 53.9978C26.0611 53.9978 18.0029 45.9399 18.0029 35.9986C18.0029 26.0572 26.0611 17.9993 36.0029 17.9993C45.9446 17.9993 54.0029 26.0572 54.0029 35.9986C54.0029 45.9399 45.9475 53.9978 36.0029 53.9978Z" fill="#287EFF"/>
</g>
<defs>
<clipPath id="clip0">
<rect width="72" height="72" fill="white"/>
</clipPath>
</defs>
</svg>
