<?xml version="1.0" encoding="utf-8"?><svg xmlns="http://www.w3.org/2000/svg" xmlns:xlink="http://www.w3.org/1999/xlink"><symbol viewBox="0 0 24 18" id="burger" xmlns="http://www.w3.org/2000/svg"><rect width="24" height="4" rx="1"/><rect y="14" width="24" height="4" rx="1"/><rect y="7" width="24" height="4" rx="1"/></symbol><symbol viewBox="0 0 32 32" id="fb" xmlns="http://www.w3.org/2000/svg"><path d="M18.228 9.229h1.391V6.137A14.128 14.128 0 0017.593 6c-2.006 0-3.38 1.61-3.38 4.57v2.722H12v3.457h2.213v8.697h2.714V16.75h2.123l.337-3.457h-2.461v-2.381c0-1 .211-1.683 1.302-1.683z"/></symbol><symbol viewBox="0 0 32 32" id="inst" xmlns="http://www.w3.org/2000/svg"><g clip-path="url(#cclip0)"><path d="M15.527 10.75c-2.7 0-4.887 2.245-4.887 5.011 0 2.77 2.188 5.011 4.887 5.011 2.7 0 4.887-2.244 4.887-5.01 0-2.77-2.189-5.012-4.887-5.012zm0 8.264c-1.753 0-3.172-1.456-3.172-3.253 0-1.796 1.42-3.252 3.172-3.252 1.752 0 3.172 1.455 3.172 3.252 0 1.797-1.419 3.253-3.172 3.253z"/><path d="M19.45 6.061c-1.752-.083-6.092-.08-7.846 0-1.541.074-2.9.456-3.997 1.58C5.776 9.519 6.01 12.05 6.01 15.76c0 3.799-.207 6.27 1.597 8.12 1.84 1.885 4.343 1.639 7.92 1.639 3.67 0 4.936.002 6.234-.513 1.764-.702 3.096-2.32 3.226-5.224.083-1.797.078-6.247 0-8.045-.157-3.428-1.951-5.507-5.536-5.677zm2.774 16.578c-1.2 1.231-2.866 1.121-6.72 1.121-3.968 0-5.56.06-6.72-1.133-1.338-1.365-1.096-3.556-1.096-6.879 0-4.496-.45-7.734 3.951-7.965 1.011-.036 1.309-.049 3.854-.049l.036.025c4.229 0 7.547-.454 7.746 4.057.046 1.03.056 1.339.056 3.944 0 4.022.074 5.663-1.107 6.879z"/><path d="M20.608 11.723c.63 0 1.142-.524 1.142-1.17 0-.647-.511-1.172-1.142-1.172-.63 0-1.142.525-1.142 1.171 0 .647.511 1.171 1.142 1.171z"/></g><defs><clipPath id="cclip0"><path transform="translate(6 6)" d="M0 0h19.047v19.53H0z"/></clipPath></defs></symbol><symbol viewBox="0 0 24 24" id="login" xmlns="http://www.w3.org/2000/svg"><path d="M6.165 22.125h-3.32a.953.953 0 01-.75-.357.98.98 0 01-.198-.82c.973-4.677 5.1-8.092 9.865-8.203a6.532 6.532 0 00.48 0 10.27 10.27 0 013.386.652.937.937 0 10.659-1.755 12.047 12.047 0 00-.469-.165 6.37 6.37 0 002.557-5.102A6.382 6.382 0 0012.002 0a6.382 6.382 0 00-6.376 6.375 6.37 6.37 0 002.562 5.105 12.183 12.183 0 00-3.929 2.16 12.231 12.231 0 00-4.197 6.925A2.847 2.847 0 002.845 24h3.32a.937.937 0 100-1.875zM7.5 6.375c0-2.481 2.02-4.5 4.5-4.5 2.482 0 4.5 2.019 4.5 4.5a4.506 4.506 0 01-4.28 4.495 12.301 12.301 0 00-.44 0A4.506 4.506 0 017.5 6.375z"/><path d="M23.282 16.154a2.526 2.526 0 00-2.305-1.482h-2.93c-1.054 0-1.975.621-2.345 1.585-.05.128-.11.29-.172.477H9.392a.938.938 0 00-.673.285l-1.61 1.659a.938.938 0 00.004 1.31l1.64 1.67c.176.178.417.28.669.28h3.047a.938.938 0 000-1.875H9.815l-.723-.736.696-.718h6.445a.938.938 0 00.91-.714c.076-.31.172-.608.31-.966.09-.236.318-.382.596-.382h2.926a.64.64 0 01.595.372c.252.563.553 1.434.555 2.39.002.962-.298 1.854-.55 2.432a.64.64 0 01-.589.384h-2.961a.667.667 0 01-.604-.415 6.246 6.246 0 01-.29-.928.938.938 0 00-1.824.436c.109.455.233.85.38 1.207A2.53 2.53 0 0018.024 24h2.965a2.515 2.515 0 002.306-1.51c.323-.742.709-1.898.706-3.186-.003-1.284-.392-2.422-.718-3.15z"/><path d="M20.203 20.25a.937.937 0 100-1.875.937.937 0 000 1.875z"/></symbol><symbol viewBox="0 0 24 24" id="logo" xmlns="http://www.w3.org/2000/svg"><path d="M12 0C7.207 0 3.308 3.9 3.308 8.692c0 5.948 7.778 14.68 8.11 15.048a.783.783 0 001.164 0c.332-.368 8.11-9.1 8.11-15.048C20.692 3.899 16.792 0 12 0zm0 13.065a4.378 4.378 0 01-4.373-4.373A4.378 4.378 0 0112 4.319a4.378 4.378 0 014.373 4.373A4.378 4.378 0 0112 13.065z"/></symbol><symbol viewBox="0 0 25 24" id="tel" xmlns="http://www.w3.org/2000/svg"><path d="M23.372 18.515l-4.858-3.24a1.418 1.418 0 00-1.899.309l-1.415 1.82a.605.605 0 01-.775.163l-.27-.149c-.892-.486-2.002-1.092-4.24-3.33-2.236-2.237-2.843-3.349-3.33-4.24l-.147-.269a.606.606 0 01.16-.778l1.818-1.415a1.419 1.419 0 00.309-1.898L5.485.63A1.41 1.41 0 003.584.202l-2.032 1.22A2.866 2.866 0 00.246 3.118C-.486 5.783.064 10.383 6.84 17.16 12.23 22.55 16.244 24 19.002 24a7.082 7.082 0 001.88-.246 2.864 2.864 0 001.696-1.306l1.221-2.03a1.41 1.41 0 00-.427-1.903zM13.601 4.002a6.807 6.807 0 016.8 6.8.4.4 0 00.8 0 7.608 7.608 0 00-7.6-7.6.4.4 0 100 .8z"/><path d="M13.601 6.401a4.405 4.405 0 014.4 4.4.4.4 0 00.8 0 5.206 5.206 0 00-5.2-5.2.4.4 0 100 .8z"/><path d="M13.601 8.801a2.002 2.002 0 012 2 .4.4 0 00.8 0 2.803 2.803 0 00-2.8-2.8.4.4 0 100 .8z"/></symbol><symbol viewBox="0 0 32 32" id="tg" xmlns="http://www.w3.org/2000/svg"><path d="M13.848 19.069l-.331 4.689c.473 0 .678-.205.924-.451l2.22-2.137 4.598 3.393c.843.474 1.437.224 1.665-.782L25.942 9.53h.001c.268-1.257-.45-1.748-1.272-1.44L6.929 14.934c-1.211.474-1.193 1.154-.206 1.462l4.536 1.421 10.536-6.643c.495-.33.946-.147.575.184l-8.522 7.71z"/></symbol></svg>