<svg width="13" height="18" viewBox="0 0 13 18" fill="none" xmlns="http://www.w3.org/2000/svg">
<path d="M11.803 1.75258C12.2187 1.38889 12.2608 0.757132 11.8971 0.341495C11.5334 -0.0741412 10.9017 -0.116259 10.486 0.247423L11.803 1.75258ZM2.00167 9L1.34317 8.24742L0.483081 9L1.34317 9.75258L2.00167 9ZM10.486 17.7526C10.9017 18.1163 11.5334 18.0741 11.8971 17.6585C12.2608 17.2429 12.2187 16.6111 11.803 16.2474L10.486 17.7526ZM10.486 0.247423L1.34317 8.24742L2.66018 9.75258L11.803 1.75258L10.486 0.247423ZM1.34317 9.75258L10.486 17.7526L11.803 16.2474L2.66018 8.24742L1.34317 9.75258Z" fill="white"/>
</svg>
