<svg width="12" height="18" viewBox="0 0 12 18" fill="none" xmlns="http://www.w3.org/2000/svg">
<path d="M0.341495 16.2474C-0.0741413 16.6111 -0.116259 17.2429 0.247423 17.6585C0.611105 18.0741 1.24287 18.1163 1.6585 17.7526L0.341495 16.2474ZM10.1429 9L10.8014 9.75258L11.6614 9L10.8014 8.24742L10.1429 9ZM1.6585 0.247423C1.24287 -0.116259 0.611106 -0.0741425 0.247423 0.341496C-0.116259 0.757132 -0.0741411 1.38889 0.341496 1.75258L1.6585 0.247423ZM1.6585 17.7526L10.8014 9.75258L9.48435 8.24742L0.341495 16.2474L1.6585 17.7526ZM10.8014 8.24742L1.6585 0.247423L0.341496 1.75258L9.48435 9.75258L10.8014 8.24742Z" fill="white"/>
</svg>
