<svg width="32" height="32" viewBox="0 0 32 32" fill="none" xmlns="http://www.w3.org/2000/svg">
<g clip-path="url(#clip0)">
<path d="M15.5269 10.7502C12.8261 10.7502 10.6396 12.9945 10.6396 15.7613C10.6396 18.5304 12.8285 20.7723 15.5269 20.7723C18.2276 20.7723 20.4141 18.528 20.4141 15.7613C20.4141 12.9921 18.2252 10.7502 15.5269 10.7502ZM15.5269 19.0138C13.7737 19.0138 12.3547 17.558 12.3547 15.7613C12.3547 13.9645 13.7745 12.5087 15.5269 12.5087C17.2792 12.5087 18.699 13.9645 18.699 15.7613C18.6998 17.558 17.28 19.0138 15.5269 19.0138Z" fill="#287EFF"/>
<path d="M19.4508 6.06135C17.6984 5.97753 13.358 5.9816 11.6041 6.06135C10.0628 6.1354 8.70331 6.51704 7.6073 7.64082C5.77558 9.51894 6.0097 12.0497 6.0097 15.7612C6.0097 19.5597 5.80336 22.0319 7.6073 23.8815C9.44616 25.7661 11.9501 25.5196 15.527 25.5196C19.1968 25.5196 20.4634 25.522 21.761 25.0069C23.5253 24.3047 24.857 22.6877 24.9872 19.7835C25.0697 17.9859 25.0649 13.5364 24.9872 11.738C24.83 8.30972 23.0356 6.2306 19.4508 6.06135ZM22.2245 22.6389C21.0237 23.8701 19.3579 23.7603 15.504 23.7603C11.5358 23.7603 9.94456 23.8205 8.78347 22.6267C7.44619 21.2621 7.68825 19.0707 7.68825 15.7481C7.68825 11.2522 7.23826 8.01433 11.639 7.78323C12.6501 7.74661 12.9477 7.7344 15.4929 7.7344L15.5286 7.75881C19.7579 7.75881 23.0761 7.30475 23.2753 11.8161C23.3205 12.8455 23.3308 13.1547 23.3308 15.7604C23.3301 19.7819 23.4047 21.4232 22.2245 22.6389Z" fill="#287EFF"/>
<path d="M20.6079 11.7233C21.2386 11.7233 21.7499 11.199 21.7499 10.5523C21.7499 9.90561 21.2386 9.38135 20.6079 9.38135C19.9771 9.38135 19.4658 9.90561 19.4658 10.5523C19.4658 11.199 19.9771 11.7233 20.6079 11.7233Z" fill="#287EFF"/>
</g>
<defs>
<clipPath id="clip0">
<rect width="19.0473" height="19.5302" fill="white" transform="translate(6 6)"/>
</clipPath>
</defs>
</svg>
