<svg width="24" height="24" viewBox="0 0 24 24" fill="none" xmlns="http://www.w3.org/2000/svg">
<path d="M6.16454 22.125H2.84546C2.44524 22.125 2.20379 21.9016 2.09551 21.7685C1.90857 21.5385 1.83615 21.2393 1.89694 20.9473C2.87049 16.271 6.99737 12.8559 11.7616 12.7451C11.8409 12.748 11.9205 12.75 12.0005 12.75C12.0812 12.75 12.1614 12.748 12.2415 12.745C13.4065 12.7716 14.5444 12.9906 15.6276 13.3973C16.1123 13.5795 16.6528 13.334 16.8348 12.8492C17.0168 12.3645 16.7714 11.824 16.2867 11.642C16.1315 11.5837 15.9752 11.5291 15.8182 11.4774C17.3698 10.3135 18.3755 8.45948 18.3755 6.375C18.3755 2.85984 15.5157 0 12.0005 0C8.48527 0 5.62548 2.85984 5.62548 6.375C5.62548 8.46136 6.63291 10.3168 8.18687 11.4805C6.76323 11.9492 5.42729 12.678 4.25813 13.6397C2.11444 15.403 0.62396 17.8625 0.0613198 20.5651C-0.115024 21.412 0.0961947 22.2818 0.640835 22.9515C1.18271 23.6178 1.98629 24 2.84546 24H6.16454C6.68232 24 7.10204 23.5803 7.10204 23.0625C7.10204 22.5447 6.68232 22.125 6.16454 22.125ZM7.50048 6.375C7.50048 3.89367 9.51915 1.875 12.0005 1.875C14.4818 1.875 16.5005 3.89367 16.5005 6.375C16.5005 8.78283 14.5995 10.7549 12.2196 10.8696C12.1466 10.8683 12.0736 10.8672 12.0005 10.8672C11.9272 10.8672 11.8539 10.8682 11.7807 10.8696C9.40107 10.7545 7.50048 8.78259 7.50048 6.375Z" fill="#287EFF"/>
<path d="M23.2823 16.1535C22.881 15.2558 21.9771 14.6742 20.9772 14.6719H18.0535C18.0514 14.6719 18.0494 14.6719 18.0473 14.6719C16.9926 14.6719 16.0724 15.2934 15.7022 16.2566C15.6529 16.3847 15.5927 16.5462 15.5298 16.7344H9.39171C9.13826 16.7344 8.89563 16.837 8.71905 17.0188L7.10862 18.6776C6.75391 19.043 6.75569 19.6246 7.1126 19.9878L8.75323 21.6571C8.92948 21.8364 9.17041 21.9375 9.42185 21.9375H12.4687C12.9865 21.9375 13.4062 21.5177 13.4062 21C13.4062 20.4822 12.9865 20.0625 12.4687 20.0625H9.81494L9.09176 19.3266L9.78818 18.6094H16.2331C16.665 18.6094 17.041 18.3143 17.1437 17.8948C17.2195 17.5851 17.3147 17.2874 17.4523 16.9294C17.543 16.6933 17.7709 16.5469 18.0495 16.5469C18.0501 16.5469 18.0507 16.5469 18.0514 16.5469H20.975C21.2401 16.5475 21.4683 16.69 21.5705 16.9187C21.8222 17.4817 22.1227 18.3534 22.125 19.3087C22.1272 20.271 21.827 21.1626 21.5747 21.7412C21.473 21.9745 21.2429 22.125 20.986 22.125C20.9854 22.125 20.9849 22.125 20.9844 22.125H18.0254C17.7661 22.1244 17.5231 21.9575 17.4209 21.7098C17.3113 21.444 17.2163 21.1404 17.1304 20.7818C17.0099 20.2783 16.5039 19.9678 16.0005 20.0882C15.4969 20.2087 15.1864 20.7147 15.307 21.2182C15.4158 21.6728 15.5403 22.0675 15.6876 22.4247C16.0813 23.3792 16.9973 23.9976 18.0233 24H20.9823C20.9843 24 20.9861 24 20.9882 24C21.989 23.9999 22.8935 23.4079 23.2935 22.4905C23.6175 21.7475 24.003 20.5916 24 19.3042C23.997 18.0203 23.6081 16.8822 23.2823 16.1535Z" fill="#287EFF"/>
<path d="M20.2031 20.25C20.7209 20.25 21.1406 19.8303 21.1406 19.3125C21.1406 18.7947 20.7209 18.375 20.2031 18.375C19.6854 18.375 19.2656 18.7947 19.2656 19.3125C19.2656 19.8303 19.6854 20.25 20.2031 20.25Z" fill="#287EFF"/>
</svg>
