<svg width="15" height="16" viewBox="0 0 15 16" fill="none" xmlns="http://www.w3.org/2000/svg">
<path d="M2.93944 10.3719C3.54245 10.3719 4.07009 10.1307 4.44698 9.72864L9.79873 13.0251C9.72336 13.1859 9.72336 13.4271 9.72336 13.5879C9.72336 14.9548 10.7033 16 11.9847 16C13.2661 16 14.246 14.9548 14.246 13.5879C14.246 12.2211 13.2661 11.1759 11.9847 11.1759C11.3816 11.1759 10.854 11.4171 10.4771 11.8191L5.12537 8.52261C5.20075 8.36181 5.20074 8.1206 5.20074 7.9598C5.20074 7.799 5.20075 7.55779 5.12537 7.39698L10.4771 4.0201C10.854 4.42211 11.3817 4.66332 11.9847 4.66332C13.1907 4.66332 14.1706 3.61809 14.1706 2.33166C14.1706 1.04523 13.1907 8.61709e-07 11.9847 7.56606e-07C10.7786 6.51503e-07 9.79874 1.04523 9.79874 2.33166C9.79874 2.49246 9.79874 2.65327 9.87411 2.89447L4.52235 6.27136C4.14547 5.86935 3.61783 5.62814 3.01481 5.62814C1.73341 5.62814 0.753507 6.67337 0.753507 8.0402C0.753507 9.40703 1.65803 10.3719 2.93944 10.3719Z" fill="#BBBBBB"/>
</svg>
