<svg width="25" height="24" viewBox="0 0 25 24" fill="none" xmlns="http://www.w3.org/2000/svg">
<path d="M23.3719 18.5152L18.5139 15.2754C17.8974 14.8676 17.071 15.0018 16.6152 15.5838L15.2001 17.4033C15.0182 17.643 14.6876 17.7126 14.4246 17.5665L14.1554 17.4181C13.263 16.9317 12.1528 16.3261 9.91572 14.0883C7.67869 11.8505 7.07194 10.7394 6.58556 9.84866L6.43796 9.57948C6.2898 9.31644 6.35804 8.98445 6.59793 8.80114L8.41616 7.38646C8.99793 6.93064 9.13231 6.10448 8.72495 5.4878L5.4852 0.629767C5.06772 0.00178388 4.23013 -0.186733 3.58382 0.201784L1.55237 1.42208C0.914071 1.79733 0.445779 2.40507 0.245685 3.11793C-0.485837 5.78332 0.0644798 10.3834 6.84077 17.1605C12.2312 22.5504 16.2441 23.9999 19.0023 23.9999C19.637 24.0027 20.2693 23.9201 20.8821 23.7544C21.5951 23.5545 22.203 23.0862 22.578 22.4477L23.7995 20.4175C24.1886 19.771 24.0002 18.9329 23.3719 18.5152Z" fill="#287EFF"/>
<path d="M13.6011 4.00157C17.3546 4.00574 20.3964 7.04755 20.4006 10.8011C20.4006 11.022 20.5797 11.201 20.8006 11.201C21.0215 11.201 21.2005 11.022 21.2005 10.8011C21.1959 6.60593 17.7963 3.20625 13.6011 3.20166C13.3802 3.20166 13.2012 3.38071 13.2012 3.60161C13.2012 3.82252 13.3802 4.00157 13.6011 4.00157Z" fill="#287EFF"/>
<path d="M13.6011 6.40123C16.0298 6.40408 17.9979 8.37221 18.0008 10.8009C18.0008 11.0218 18.1799 11.2009 18.4008 11.2009C18.6217 11.2009 18.8007 11.0218 18.8007 10.8009C18.7974 7.93059 16.4714 5.6046 13.6011 5.60132C13.3802 5.60132 13.2012 5.78037 13.2012 6.00127C13.2012 6.22218 13.3802 6.40123 13.6011 6.40123Z" fill="#287EFF"/>
<path d="M13.6011 8.80113C14.705 8.80244 15.5996 9.69703 15.601 10.801C15.601 11.0219 15.7801 11.2009 16.0009 11.2009C16.2218 11.2009 16.4009 11.0219 16.4009 10.801C16.3991 9.25545 15.1467 8.00295 13.6011 8.00122C13.3802 8.00122 13.2012 8.18027 13.2012 8.40117C13.2012 8.62208 13.3802 8.80113 13.6011 8.80113Z" fill="#287EFF"/>
</svg>
